<svg version="1.0" xmlns="http://www.w3.org/2000/svg"
 width="17" height="15" viewBox="0 0 980.000000 862.000000"
 preserveAspectRatio="xMidYMid meet">

<g transform="translate(0.000000,862.000000) scale(0.100000,-0.100000)"
fill="#000000" stroke="none">
<path d="M3847 8608 c-416 -42 -791 -276 -1014 -633 -61 -97 -122 -234 -284
-642 l-104 -261 -605 -4 c-664 -5 -694 -7 -885 -70 -345 -112 -647 -373 -813
-704 -42 -84 -96 -242 -118 -349 -18 -87 -19 -174 -19 -2410 l0 -2320 23 -103
c125 -565 555 -982 1122 -1089 90 -17 278 -18 3750 -18 3526 0 3659 1 3755 19
319 59 592 213 799 451 163 188 260 381 318 633 l22 97 4 2260 c2 1603 0 2289
-8 2360 -73 659 -582 1164 -1242 1235 -55 5 -337 10 -646 10 l-548 0 -153 383
c-84 210 -173 418 -198 462 -227 401 -607 648 -1067 694 -134 13 -1958 13
-2089 -1z m2067 -833 c145 -31 266 -113 347 -238 23 -35 132 -294 285 -677
l248 -619 860 -3 861 -3 74 -27 c192 -70 336 -234 371 -423 8 -43 10 -679 8
-2290 l-3 -2230 -23 -60 c-63 -166 -205 -299 -377 -352 -58 -17 -194 -18
-3665 -18 l-3605 0 -78 28 c-43 15 -102 42 -130 61 -115 73 -219 223 -246 354
-14 68 -16 4435 -2 4508 32 170 152 323 312 400 109 53 118 54 1020 54 l835 0
239 598 c131 328 251 622 266 653 72 144 208 248 373 284 95 21 1933 21 2030
0z"/>
<path d="M4730 6080 c-577 -46 -1107 -292 -1513 -704 -479 -486 -728 -1176
-667 -1851 25 -278 111 -584 235 -833 234 -472 605 -844 1070 -1072 237 -116
437 -180 700 -222 156 -25 483 -30 635 -9 450 61 871 243 1215 526 394 325
679 783 794 1280 78 334 80 709 5 1044 -198 889 -903 1595 -1789 1790 -209 46
-486 67 -685 51z m310 -830 c206 -21 366 -67 545 -156 417 -206 713 -591 817
-1061 18 -83 22 -129 22 -303 0 -174 -4 -220 -22 -303 -125 -564 -531 -1006
-1067 -1162 -160 -46 -257 -59 -435 -59 -177 1 -278 14 -433 59 -546 159 -967
628 -1073 1196 -25 131 -25 410 -1 534 65 328 204 591 434 817 129 128 233
202 391 282 256 128 549 184 822 156z"/>
</g>
</svg>
